<svg xmlns="http://www.w3.org/2000/svg" width="1200" height="630" viewBox="0 0 1200 630" role="img" aria-labelledby="title desc">
  <title id="title">ProbLab - Calculadoras estadísticas online</title>
  <desc id="desc">Imagen social de ProbLab con una curva de distribución y el texto Calculadoras estadísticas online.</desc>
  <defs>
    <linearGradient id="bg" x1="0" x2="1" y1="0" y2="1">
      <stop offset="0" stop-color="#1e40af"/>
      <stop offset="0.55" stop-color="#4338ca"/>
      <stop offset="1" stop-color="#4f46e5"/>
    </linearGradient>
    <radialGradient id="glow" cx="78%" cy="18%" r="58%">
      <stop offset="0" stop-color="#38bdf8" stop-opacity="0.5"/>
      <stop offset="1" stop-color="#38bdf8" stop-opacity="0"/>
    </radialGradient>
    <filter id="shadow" x="-10%" y="-10%" width="120%" height="120%">
      <feDropShadow dx="0" dy="22" stdDeviation="26" flood-color="#0f172a" flood-opacity="0.18"/>
    </filter>
  </defs>

  <rect width="1200" height="630" fill="url(#bg)"/>
  <rect width="1200" height="630" fill="url(#glow)"/>

  <g filter="url(#shadow)">
    <rect x="70" y="70" width="1060" height="490" rx="34" fill="#f8fafc"/>
    <rect x="95" y="95" width="1010" height="440" rx="24" fill="#ffffff"/>
  </g>

  <rect x="125" y="150" width="320" height="325" rx="22" fill="#eff6ff"/>
  <text x="145" y="151" fill="#1d4ed8" font-family="Inter, Arial, sans-serif" font-size="35" font-weight="800" letter-spacing="1">GRATIS SIN REGISTRO</text>
  <path d="M155 405H405M155 185V405" stroke="#94a3b8" stroke-width="1.5"/>
  <path d="M170 393 C220 388 225 345 245 290 C260 247 275 210 290 210 C305 210 320 247 335 290 C355 345 365 388 398 393" fill="none" stroke="#2563eb" stroke-width="8" stroke-linecap="round"/>
  <circle cx="220" cy="360" r="10" fill="#10b981"/>
  <circle cx="340" cy="318" r="10" fill="#7c3aed"/>

  <rect x="530" y="160" width="230" height="92" rx="18" fill="#dbeafe"/>
  <rect x="790" y="160" width="260" height="92" rx="18" fill="#ede9fe"/>
  <rect x="530" y="295" width="230" height="92" rx="18" fill="#d1fae5"/>
  <rect x="790" y="295" width="260" height="92" rx="18" fill="#e0f2fe"/>
  <rect x="530" y="430" width="520" height="58" rx="18" fill="#fef3c7"/>

  <text x="530" y="241" fill="#1e40af" font-family="Inter, Arial, sans-serif" font-size="86" font-weight="900" letter-spacing="3">PROBLAB</text>
  <text x="530" y="322" fill="#0f172a" font-family="Inter, Arial, sans-serif" font-size="43" font-weight="800" letter-spacing="1">CALCULADORAS</text>
  <text x="530" y="370" fill="#0f172a" font-family="Inter, Arial, sans-serif" font-size="43" font-weight="800" letter-spacing="1">ESTADÍSTICAS ONLINE</text>
  <text x="550" y="466" fill="#475569" font-family="Inter, Arial, sans-serif" font-size="19" font-weight="800" letter-spacing="1">DISTRIBUCIONES</text>
  <text x="750" y="466" fill="#475569" font-family="Inter, Arial, sans-serif" font-size="19" font-weight="800" letter-spacing="1">CONTRASTES</text>
  <text x="920" y="466" fill="#475569" font-family="Inter, Arial, sans-serif" font-size="19" font-weight="800" letter-spacing="1">INTERVALOS</text>
</svg>
